<svg width="16" height="17" fill="none" xmlns="http://www.w3.org/2000/svg"><path d="M7.998 5.832A2.673 2.673 0 005.33 8.5a2.673 2.673 0 002.668 2.668A2.673 2.673 0 0010.666 8.5a2.673 2.673 0 00-2.668-2.668zM15.999 8.5c0-1.105.01-2.2-.052-3.302-.062-1.281-.354-2.418-1.29-3.355-.94-.938-2.074-1.228-3.355-1.29C10.197.49 9.102.5 8 .5 6.895.5 5.8.49 4.698.553 3.417.615 2.28.907 1.343 1.843.405 2.784.115 3.917.053 5.199-.01 6.303 0 7.398 0 8.5c0 1.103-.01 2.2.052 3.302.062 1.281.354 2.418 1.29 3.354.94.94 2.074 1.23 3.355 1.291 1.104.062 2.2.052 3.302.052 1.105 0 2.2.01 3.302-.052 1.28-.062 2.418-.354 3.354-1.29.939-.94 1.229-2.074 1.291-3.355C16.011 10.7 16 9.605 16 8.5zm-8.001 4.105A4.099 4.099 0 013.893 8.5a4.099 4.099 0 014.105-4.105A4.099 4.099 0 0112.102 8.5a4.099 4.099 0 01-4.104 4.105zm4.273-7.42a.958.958 0 110-1.917.957.957 0 110 1.918z" fill="#3C3B3A"/></svg>