<svg width="16" height="17" fill="none" xmlns="http://www.w3.org/2000/svg"><path d="M14.803 4.2C12.41.5 7.523-.6 3.733 1.7.045 4-1.152 9 1.242 12.7l.2.3-.799 3 2.992-.8.3.2c1.296.7 2.692 1.1 4.088 1.1 1.496 0 2.992-.4 4.288-1.2C16 12.9 17.097 8 14.803 4.2zm-2.094 7.7c-.399.6-.897 1-1.595 1.1-.4 0-.898.2-2.892-.6-1.696-.8-3.092-2.1-4.09-3.6-.598-.7-.897-1.6-.996-2.5 0-.8.299-1.5.797-2 .2-.2.4-.3.599-.3h.498c.2 0 .4 0 .499.4.2.5.698 1.7.698 1.8.1.1.1.3 0 .4.1.2 0 .4-.1.5-.1.1-.2.3-.299.4-.2.1-.299.3-.2.5.4.6.898 1.2 1.397 1.7.598.5 1.197.9 1.895 1.2.2.1.399.1.498-.1.1-.2.599-.7.798-.9.2-.2.3-.2.499-.1l1.595.8c.2.1.4.2.499.3.1.3.1.7-.1 1z" fill="#3C3B3A"/></svg>